# xmcd
#
# Track frame offsets:
#	150
#	17620
#	33702
#	51250
#	68717
#
# Disc length: 936 seconds
#
# Revision: 0
# Processed by: cddbd v1.5.1PL2 Copyright (c) Steve Scherf et al.
# Submitted via: dBpowerAMP V4.0
#
DISCID=3d03a605
DTITLE=Jill Scott - Golden (Single)
DYEAR=2004
DGENRE=Soul
TTITLE0=Golden (Original West Coast Mix)
TTITLE1=Golden (East Coast 107 Mix)
TTITLE2=Golden (Instrumental)
TTITLE3=Golden (Acapella)
TTITLE4=Golden (Callout Hook)
EXTD=
EXTT0=
EXTT1=
EXTT2=
EXTT3=
EXTT4=
PLAYORDER=
